<svg width="331" height="162" viewBox="0 0 331 162" fill="none" xmlns="http://www.w3.org/2000/svg">
<path d="M0 15C0 6.71573 6.71573 0 15 0H316C324.284 0 331 6.71573 331 15V147C331 155.284 324.284 162 316 162H15C6.71573 162 0 155.284 0 147V15Z" fill="#FFF5C1"/>
<path d="M81.5909 69.5909V74.1364H63.5V69.5909H81.5909ZM68.7727 61.2273H74.1364V94.5C74.1364 96.0152 74.3561 97.1515 74.7955 97.9091C75.25 98.6515 75.8258 99.1515 76.5227 99.4091C77.2348 99.6515 77.9848 99.7727 78.7727 99.7727C79.3636 99.7727 79.8485 99.7424 80.2273 99.6818C80.6061 99.6061 80.9091 99.5455 81.1364 99.5L82.2273 104.318C81.8636 104.455 81.3561 104.591 80.7045 104.727C80.053 104.879 79.2273 104.955 78.2273 104.955C76.7121 104.955 75.2273 104.629 73.7727 103.977C72.3333 103.326 71.1364 102.333 70.1818 101C69.2424 99.6667 68.7727 97.9848 68.7727 95.9545V61.2273ZM99.9318 105.318C97.7197 105.318 95.7121 104.902 93.9091 104.068C92.1061 103.22 90.6742 102 89.6136 100.409C88.553 98.803 88.0227 96.8636 88.0227 94.5909C88.0227 92.5909 88.4167 90.9697 89.2045 89.7273C89.9924 88.4697 91.0455 87.4848 92.3636 86.7727C93.6818 86.0606 95.1364 85.5303 96.7273 85.1818C98.3333 84.8182 99.947 84.5303 101.568 84.3182C103.689 84.0455 105.409 83.8409 106.727 83.7045C108.061 83.553 109.03 83.303 109.636 82.9545C110.258 82.6061 110.568 82 110.568 81.1364V80.9545C110.568 78.7121 109.955 76.9697 108.727 75.7273C107.515 74.4848 105.674 73.8636 103.205 73.8636C100.644 73.8636 98.6364 74.4242 97.1818 75.5455C95.7273 76.6667 94.7045 77.8636 94.1136 79.1364L89.0227 77.3182C89.9318 75.197 91.1439 73.5455 92.6591 72.3636C94.1894 71.1667 95.8561 70.3333 97.6591 69.8636C99.4773 69.3788 101.265 69.1364 103.023 69.1364C104.144 69.1364 105.432 69.2727 106.886 69.5455C108.356 69.803 109.773 70.3409 111.136 71.1591C112.515 71.9773 113.659 73.2121 114.568 74.8636C115.477 76.5152 115.932 78.7273 115.932 81.5V104.5H110.568V99.7727H110.295C109.932 100.53 109.326 101.341 108.477 102.205C107.629 103.068 106.5 103.803 105.091 104.409C103.682 105.015 101.962 105.318 99.9318 105.318ZM100.75 100.5C102.871 100.5 104.659 100.083 106.114 99.25C107.583 98.4167 108.689 97.3409 109.432 96.0227C110.189 94.7045 110.568 93.3182 110.568 91.8636V86.9545C110.341 87.2273 109.841 87.4773 109.068 87.7045C108.311 87.9167 107.432 88.1061 106.432 88.2727C105.447 88.4242 104.485 88.5606 103.545 88.6818C102.621 88.7879 101.871 88.8788 101.295 88.9545C99.9015 89.1364 98.5985 89.4318 97.3864 89.8409C96.1894 90.2348 95.2197 90.8333 94.4773 91.6364C93.75 92.4242 93.3864 93.5 93.3864 94.8636C93.3864 96.7273 94.0758 98.1364 95.4545 99.0909C96.8485 100.03 98.6136 100.5 100.75 100.5ZM125.722 117.591V69.5909H130.903V75.1364H131.54C131.934 74.5303 132.479 73.7576 133.176 72.8182C133.888 71.8636 134.903 71.0152 136.222 70.2727C137.555 69.5152 139.358 69.1364 141.631 69.1364C144.57 69.1364 147.161 69.8712 149.403 71.3409C151.646 72.8106 153.396 74.8939 154.653 77.5909C155.911 80.2879 156.54 83.4697 156.54 87.1364C156.54 90.8333 155.911 94.0379 154.653 96.75C153.396 99.447 151.653 101.538 149.426 103.023C147.199 104.492 144.631 105.227 141.722 105.227C139.479 105.227 137.684 104.856 136.335 104.114C134.987 103.356 133.949 102.5 133.222 101.545C132.494 100.576 131.934 99.7727 131.54 99.1364H131.085V117.591H125.722ZM130.994 87.0455C130.994 89.6818 131.381 92.0076 132.153 94.0227C132.926 96.0227 134.055 97.5909 135.54 98.7273C137.025 99.8485 138.843 100.409 140.994 100.409C143.237 100.409 145.108 99.8182 146.608 98.6364C148.123 97.4394 149.259 95.8333 150.017 93.8182C150.79 91.7879 151.176 89.5303 151.176 87.0455C151.176 84.5909 150.797 82.3788 150.04 80.4091C149.297 78.4242 148.169 76.8561 146.653 75.7045C145.153 74.5379 143.267 73.9545 140.994 73.9545C138.813 73.9545 136.979 74.5076 135.494 75.6136C134.009 76.7045 132.888 78.2348 132.131 80.2045C131.373 82.1591 130.994 84.4394 130.994 87.0455ZM164.722 117.591V69.5909H169.903V75.1364H170.54C170.934 74.5303 171.479 73.7576 172.176 72.8182C172.888 71.8636 173.903 71.0152 175.222 70.2727C176.555 69.5152 178.358 69.1364 180.631 69.1364C183.57 69.1364 186.161 69.8712 188.403 71.3409C190.646 72.8106 192.396 74.8939 193.653 77.5909C194.911 80.2879 195.54 83.4697 195.54 87.1364C195.54 90.8333 194.911 94.0379 193.653 96.75C192.396 99.447 190.653 101.538 188.426 103.023C186.199 104.492 183.631 105.227 180.722 105.227C178.479 105.227 176.684 104.856 175.335 104.114C173.987 103.356 172.949 102.5 172.222 101.545C171.494 100.576 170.934 99.7727 170.54 99.1364H170.085V117.591H164.722ZM169.994 87.0455C169.994 89.6818 170.381 92.0076 171.153 94.0227C171.926 96.0227 173.055 97.5909 174.54 98.7273C176.025 99.8485 177.843 100.409 179.994 100.409C182.237 100.409 184.108 99.8182 185.608 98.6364C187.123 97.4394 188.259 95.8333 189.017 93.8182C189.79 91.7879 190.176 89.5303 190.176 87.0455C190.176 84.5909 189.797 82.3788 189.04 80.4091C188.297 78.4242 187.169 76.8561 185.653 75.7045C184.153 74.5379 182.267 73.9545 179.994 73.9545C177.813 73.9545 175.979 74.5076 174.494 75.6136C173.009 76.7045 171.888 78.2348 171.131 80.2045C170.373 82.1591 169.994 84.4394 169.994 87.0455ZM203.722 104.5V69.5909H209.085V104.5H203.722ZM206.449 63.7727C205.403 63.7727 204.502 63.4167 203.744 62.7045C203.002 61.9924 202.631 61.1364 202.631 60.1364C202.631 59.1364 203.002 58.2803 203.744 57.5682C204.502 56.8561 205.403 56.5 206.449 56.5C207.494 56.5 208.388 56.8561 209.131 57.5682C209.888 58.2803 210.267 59.1364 210.267 60.1364C210.267 61.1364 209.888 61.9924 209.131 62.7045C208.388 63.4167 207.494 63.7727 206.449 63.7727ZM224.273 83.5V104.5H218.909V69.5909H224.091V75.0455H224.545C225.364 73.2727 226.606 71.8485 228.273 70.7727C229.939 69.6818 232.091 69.1364 234.727 69.1364C237.091 69.1364 239.159 69.6212 240.932 70.5909C242.705 71.5455 244.083 73 245.068 74.9545C246.053 76.8939 246.545 79.3485 246.545 82.3182V104.5H241.182V82.6818C241.182 79.9394 240.47 77.803 239.045 76.2727C237.621 74.7273 235.667 73.9545 233.182 73.9545C231.47 73.9545 229.939 74.3258 228.591 75.0682C227.258 75.8106 226.205 76.8939 225.432 78.3182C224.659 79.7424 224.273 81.4697 224.273 83.5ZM260.256 104.864C259.134 104.864 258.172 104.462 257.369 103.659C256.566 102.856 256.165 101.894 256.165 100.773C256.165 99.6515 256.566 98.6894 257.369 97.8864C258.172 97.0833 259.134 96.6818 260.256 96.6818C261.377 96.6818 262.339 97.0833 263.142 97.8864C263.945 98.6894 264.347 99.6515 264.347 100.773C264.347 101.515 264.157 102.197 263.778 102.818C263.415 103.439 262.922 103.939 262.301 104.318C261.695 104.682 261.013 104.864 260.256 104.864Z" fill="black" fill-opacity="0.14"/>
<rect x="4" y="4" width="323" height="154" rx="11" stroke="black" stroke-opacity="0.14" stroke-width="8"/>
</svg>
