<svg width="215" height="99" viewBox="0 0 215 99" fill="none" xmlns="http://www.w3.org/2000/svg">
<rect width="215" height="99" rx="15" fill="white"/>
<path d="M55.0568 42.6818V45.5227H43.75V42.6818H55.0568ZM47.0455 37.4545H50.3977V58.25C50.3977 59.197 50.535 59.9072 50.8097 60.3807C51.0938 60.8447 51.4536 61.1572 51.8892 61.3182C52.3343 61.4697 52.803 61.5455 53.2955 61.5455C53.6648 61.5455 53.9678 61.5265 54.2045 61.4886C54.4413 61.4413 54.6307 61.4034 54.7727 61.375L55.4545 64.3864C55.2273 64.4716 54.91 64.5568 54.5028 64.642C54.0956 64.7367 53.5795 64.7841 52.9545 64.7841C52.0076 64.7841 51.0795 64.5805 50.1705 64.1733C49.2708 63.7661 48.5227 63.1458 47.9261 62.3125C47.339 61.4792 47.0455 60.428 47.0455 59.1591V37.4545ZM66.5199 65.0114C65.1373 65.0114 63.8826 64.7509 62.7557 64.2301C61.6288 63.6998 60.7339 62.9375 60.071 61.9432C59.4081 60.9394 59.0767 59.7273 59.0767 58.3068C59.0767 57.0568 59.3229 56.0436 59.8153 55.267C60.3078 54.4811 60.9659 53.8655 61.7898 53.4205C62.6136 52.9754 63.5227 52.6439 64.517 52.4261C65.5208 52.1989 66.5294 52.0189 67.5426 51.8864C68.8684 51.7159 69.9432 51.5881 70.767 51.5028C71.6004 51.4081 72.2064 51.2519 72.5852 51.0341C72.9735 50.8163 73.1676 50.4375 73.1676 49.8977V49.7841C73.1676 48.3826 72.7841 47.2936 72.017 46.517C71.2595 45.7405 70.1089 45.3523 68.5653 45.3523C66.965 45.3523 65.7102 45.7027 64.8011 46.4034C63.892 47.1042 63.2528 47.8523 62.8835 48.6477L59.7017 47.5114C60.2699 46.1856 61.0275 45.1534 61.9744 44.4148C62.9309 43.6667 63.9725 43.1458 65.0994 42.8523C66.2358 42.5492 67.3532 42.3977 68.4517 42.3977C69.1525 42.3977 69.9574 42.483 70.8665 42.6534C71.785 42.8144 72.6705 43.1506 73.5227 43.6619C74.3845 44.1733 75.0994 44.9451 75.6676 45.9773C76.2358 47.0095 76.5199 48.392 76.5199 50.125V64.5H73.1676V61.5455H72.9972C72.7699 62.0189 72.3911 62.5256 71.8608 63.0653C71.3305 63.6051 70.625 64.0644 69.7443 64.4432C68.8636 64.822 67.7888 65.0114 66.5199 65.0114ZM67.0312 62C68.357 62 69.4744 61.7396 70.3835 61.2188C71.3021 60.6979 71.9934 60.0256 72.4574 59.2017C72.9309 58.3778 73.1676 57.5114 73.1676 56.6023V53.5341C73.0256 53.7045 72.7131 53.8608 72.2301 54.0028C71.7566 54.1354 71.2074 54.2538 70.5824 54.358C69.9669 54.4527 69.3655 54.5379 68.7784 54.6136C68.2008 54.6799 67.732 54.7367 67.3722 54.7841C66.5009 54.8977 65.6866 55.0824 64.929 55.3381C64.1809 55.5843 63.5748 55.9583 63.1108 56.4602C62.6563 56.9527 62.429 57.625 62.429 58.4773C62.429 59.642 62.8598 60.5227 63.7216 61.1193C64.5928 61.7064 65.696 62 67.0312 62ZM82.6385 72.6818V42.6818H85.8771V46.1477H86.2749C86.5211 45.7689 86.862 45.286 87.2976 44.6989C87.7427 44.1023 88.3771 43.572 89.201 43.108C90.0343 42.6345 91.1612 42.3977 92.5817 42.3977C94.4188 42.3977 96.0381 42.857 97.4396 43.7756C98.8411 44.6941 99.9349 45.9962 100.721 47.6818C101.507 49.3674 101.9 51.3561 101.9 53.6477C101.9 55.9583 101.507 57.9612 100.721 59.6562C99.9349 61.3419 98.8459 62.6487 97.4538 63.5767C96.0618 64.4953 94.4567 64.9545 92.6385 64.9545C91.237 64.9545 90.1148 64.7225 89.272 64.2585C88.4292 63.785 87.7805 63.25 87.326 62.6534C86.8714 62.0473 86.5211 61.5455 86.2749 61.1477H85.9908V72.6818H82.6385ZM85.9339 53.5909C85.9339 55.2386 86.1754 56.6922 86.6584 57.9517C87.1413 59.2017 87.8468 60.1818 88.7749 60.892C89.7029 61.5928 90.8393 61.9432 92.1839 61.9432C93.5855 61.9432 94.755 61.5739 95.6925 60.8352C96.6394 60.0871 97.3497 59.0833 97.8232 57.8239C98.3061 56.5549 98.5476 55.1439 98.5476 53.5909C98.5476 52.0568 98.3108 50.6742 97.8374 49.4432C97.3733 48.2027 96.6679 47.2225 95.7209 46.5028C94.7834 45.7737 93.6044 45.4091 92.1839 45.4091C90.8203 45.4091 89.6745 45.7547 88.7464 46.446C87.8184 47.1278 87.1177 48.0843 86.6442 49.3153C86.1707 50.5369 85.9339 51.9621 85.9339 53.5909ZM107.013 72.6818V42.6818H110.252V46.1477H110.65C110.896 45.7689 111.237 45.286 111.673 44.6989C112.118 44.1023 112.752 43.572 113.576 43.108C114.409 42.6345 115.536 42.3977 116.957 42.3977C118.794 42.3977 120.413 42.857 121.815 43.7756C123.216 44.6941 124.31 45.9962 125.096 47.6818C125.882 49.3674 126.275 51.3561 126.275 53.6477C126.275 55.9583 125.882 57.9612 125.096 59.6562C124.31 61.3419 123.221 62.6487 121.829 63.5767C120.437 64.4953 118.832 64.9545 117.013 64.9545C115.612 64.9545 114.49 64.7225 113.647 64.2585C112.804 63.785 112.156 63.25 111.701 62.6534C111.246 62.0473 110.896 61.5455 110.65 61.1477H110.366V72.6818H107.013ZM110.309 53.5909C110.309 55.2386 110.55 56.6922 111.033 57.9517C111.516 59.2017 112.222 60.1818 113.15 60.892C114.078 61.5928 115.214 61.9432 116.559 61.9432C117.96 61.9432 119.13 61.5739 120.067 60.8352C121.014 60.0871 121.725 59.0833 122.198 57.8239C122.681 56.5549 122.923 55.1439 122.923 53.5909C122.923 52.0568 122.686 50.6742 122.212 49.4432C121.748 48.2027 121.043 47.2225 120.096 46.5028C119.158 45.7737 117.979 45.4091 116.559 45.4091C115.195 45.4091 114.049 45.7547 113.121 46.446C112.193 47.1278 111.493 48.0843 111.019 49.3153C110.546 50.5369 110.309 51.9621 110.309 53.5909ZM131.388 64.5V42.6818H134.741V64.5H131.388ZM133.093 39.0455C132.44 39.0455 131.876 38.8229 131.403 38.3778C130.939 37.9328 130.707 37.3977 130.707 36.7727C130.707 36.1477 130.939 35.6127 131.403 35.1676C131.876 34.7225 132.44 34.5 133.093 34.5C133.746 34.5 134.305 34.7225 134.769 35.1676C135.243 35.6127 135.479 36.1477 135.479 36.7727C135.479 37.3977 135.243 37.9328 134.769 38.3778C134.305 38.8229 133.746 39.0455 133.093 39.0455ZM144.233 51.375V64.5H140.881V42.6818H144.119V46.0909H144.403C144.915 44.983 145.691 44.0928 146.733 43.4205C147.775 42.7386 149.119 42.3977 150.767 42.3977C152.244 42.3977 153.537 42.7008 154.645 43.3068C155.753 43.9034 156.615 44.8125 157.23 46.0341C157.846 47.2462 158.153 48.7803 158.153 50.6364V64.5H154.801V50.8636C154.801 49.1496 154.356 47.8144 153.466 46.858C152.576 45.892 151.354 45.4091 149.801 45.4091C148.731 45.4091 147.775 45.6411 146.932 46.1051C146.098 46.5691 145.44 47.2462 144.957 48.1364C144.474 49.0265 144.233 50.1061 144.233 51.375ZM166.722 64.7273C166.022 64.7273 165.42 64.4763 164.918 63.9744C164.416 63.4725 164.165 62.8712 164.165 62.1705C164.165 61.4697 164.416 60.8684 164.918 60.3665C165.42 59.8646 166.022 59.6136 166.722 59.6136C167.423 59.6136 168.024 59.8646 168.526 60.3665C169.028 60.8684 169.279 61.4697 169.279 62.1705C169.279 62.6345 169.161 63.0606 168.924 63.4489C168.697 63.8371 168.389 64.1496 168.001 64.3864C167.622 64.6136 167.196 64.7273 166.722 64.7273Z" fill="black" fill-opacity="0.2"/>
<rect x="1.5" y="1.5" width="212" height="96" rx="13.5" stroke="black" stroke-opacity="0.2" stroke-width="3"/>
</svg>
